<svg xmlns="http://www.w3.org/2000/svg" viewBox="0 0 1646.56 472.75"><defs><style>.cls-1{fill:#fff;}</style></defs><g id="Layer_2" data-name="Layer 2"><g id="Layer_1-2" data-name="Layer 1"><path class="cls-1" d="M906.67,51.6V16a8.85,8.85,0,0,1,9.06-9h159.55a8.9,8.9,0,0,1,9.22,9V46.56c-.06,5-4.38,11.76-12,22.38L989.76,187c30.7-.72,63.18,3.86,91.07,19.55,6.28,3.55,8,8.73,8.47,13.87v38.05c0,5.26-5.75,11.33-11.72,8.17-49.17-25.79-114.35-28.59-168.65.31-5.56,3-11.35-3-11.35-8.24v-36.2c0-5.77.09-15.66,5.93-24.46L999.26,60.6H915.9A8.91,8.91,0,0,1,906.67,51.6ZM324.61,274.08H276.05a9.09,9.09,0,0,1-8.68-8.19l0-249.26a9.15,9.15,0,0,1,9.36-9H322A9.17,9.17,0,0,1,330.81,16V48.58h.89c11.76-31.48,34-46.19,63.88-46.19,30.38,0,49.36,14.71,63,46.19,11.8-31.48,38.51-46.19,67.09-46.19,20.4,0,42.58,8.41,56.2,27.29,15.43,20.93,12.24,51.4,12.24,78.09l0,157.33a9.19,9.19,0,0,1-9.39,9H536.22a9.07,9.07,0,0,1-8.72-8.93l0-132.18c0-10.48.89-36.67-1.38-46.68-3.65-16.78-14.52-21.5-28.57-21.5-11.73,0-24,7.87-29,20.46S464,118.79,464,133V265.09a9.16,9.16,0,0,1-9.37,9H406.16a9.08,9.08,0,0,1-8.73-8.93L397.37,133c0-27.82,4.55-68.7-29.87-68.7-34.93,0-33.56,39.89-33.56,68.7l0,132.12a9.1,9.1,0,0,1-9.31,9ZM1221.91,2.39c72,0,111,61.89,111,140.55,0,76-43.13,136.4-111,136.4-70.72,0-109.27-62-109.27-139C1112.64,62.72,1151.62,2.39,1221.91,2.39Zm.46,50.85c-35.85,0-38.13,48.84-38.13,79.16s-.45,95.44,37.67,95.44c37.53,0,39.31-52.42,39.31-84.33,0-21-.88-46.17-7.24-66.12-5.42-17.34-16.3-24.15-31.61-24.15Zm204,220.84H1378a9.06,9.06,0,0,1-8.72-8.93l-.1-249.35a9.23,9.23,0,0,1,9.35-8.15l45.08,0a9.23,9.23,0,0,1,8.63,7V52.73h.92c13.58-34.06,32.54-50.34,66.08-50.34,21.78,0,43.13,7.88,56.72,29.41,12.62,19.86,12.62,53.46,12.62,77.57V266.21a9.22,9.22,0,0,1-9.21,7.87h-48.75a9.25,9.25,0,0,1-8.66-7.87V130.88c0-27.22,3.22-67.14-30.38-67.14-11.8,0-22.56,7.89-28,20-6.79,15.22-7.68,30.38-7.68,47.18V265.1A9.32,9.32,0,0,1,1426.35,274.08ZM229.46,228.35c-8.83-12.3-18.28-22.23-18.28-45V107.71c0-32,2.29-61.43-21.36-83.51C171.18,6.31,140.31,0,116.67,0,70.46,0,18.94,17.24,8.11,74.34c-1.15,6.1,3.27,9.27,7.26,10.17l47.05,5.1c4.38-.23,7.59-4.59,8.43-9,4.05-19.69,20.53-29.17,39-29.17,10,0,21.31,3.7,27.25,12.63C144,74.08,143,87.78,143,99.35v6.25c-28.17,3.17-65,5.26-91.27,16.84C21.32,135.6,0,162.36,0,201.82c0,50.49,31.77,75.72,72.61,75.72,34.59,0,53.41-8.16,80.08-35.31,8.83,12.76,11.7,18.92,27.82,32.38A10,10,0,0,0,192,273.46l.11.12c9.7-8.65,27.35-24,37.21-32.26,3.94-3.27,3.24-8.57.15-13Zm-95.52-21.81c-7.74,13.59-20,22-33.59,22-18.63,0-29.53-14.2-29.53-35.17,0-41.34,37.11-48.84,72.22-48.84V155C143,173.91,143.48,189.7,133.94,206.54Zm732,21.81c-8.91-12.3-18.34-22.23-18.34-45V107.71c0-32,2.28-61.43-21.37-83.51C807.65,6.31,776.73,0,753.14,0c-46.2,0-97.75,17.24-108.57,74.34-1.15,6.1,3.27,9.27,7.25,10.17l47,5.1c4.45-.23,7.64-4.59,8.46-9,4.08-19.69,20.48-29.17,39-29.17,10,0,21.35,3.7,27.23,12.63,6.79,10,5.89,23.66,5.89,35.23v6.25c-28.15,3.17-64.92,5.26-91.24,16.84-30.44,13.16-51.79,39.92-51.79,79.38,0,50.49,31.75,75.72,72.65,75.72,34.5,0,53.41-8.16,80.06-35.31,8.81,12.76,11.71,18.92,27.82,32.38a10,10,0,0,0,11.44-1.15l.11.12c9.72-8.65,27.36-24,37.28-32.26,4-3.27,3.27-8.57.14-13Zm-95.56-21.81c-7.68,13.59-20,22-33.59,22-18.63,0-29.48-14.2-29.48-35.17,0-41.34,37.06-48.84,72.16-48.84V155C779.45,173.91,779.92,189.7,770.36,206.54Z"/><path class="cls-1" d="M971.5,370.94c-92.62,66.11-221.63,101.81-335.44,101.81-159.43,0-301.54-57.71-411-156.58-10.13-9.14-3.59-19.87,9-12.63,119.11,68.88,261.85,109.18,411.62,109.18a797.73,797.73,0,0,0,310.23-63.49c22.29-9.5,31.53,10.33,15.61,21.71Z"/><path class="cls-1" d="M1011.07,326.32c-11.71-15-77.12-7.07-106.5-3.6-8.85,1.08-10.29-6.7-2.23-12.32,52.17-36.47,137.69-25.85,147.58-13.82,10,12.39-2.64,98.19-51.52,139.15-7.53,6.34-14.61,2.9-11.29-5.4,11-27.52,35.62-89.1,24-104Z"/><path class="cls-1" d="M1623.75,233.38a19.68,19.68,0,1,1-13.9,5.77,18.94,18.94,0,0,1,13.9-5.77Zm22.81,19.6a21.85,21.85,0,0,0-6.68-16.06,22.8,22.8,0,0,0-32.27,32.21,22.82,22.82,0,0,0,39-16.15Zm-16.78-4.92a3.79,3.79,0,0,1-2.6,3.84,12.28,12.28,0,0,1-4.26.55h-4v-8.92h3.8a11.9,11.9,0,0,1,5.43.91C1629.22,245.06,1629.78,246.25,1629.78,248.06Zm-15.2-7.62v24.92h4.3v-9.82h3.52a11.27,11.27,0,0,1,5,.79c1.61,1,2.4,2.84,2.4,5.73v2l.1.8,0,.28a1,1,0,0,1,.07.25h4.1l-.16-.31a3.54,3.54,0,0,1-.23-1.29c0-.67,0-1.28,0-1.86v-1.81a7.13,7.13,0,0,0-1.36-3.89,6.06,6.06,0,0,0-4.29-2.43,9.36,9.36,0,0,0,3.61-1.2,5.47,5.47,0,0,0,2.48-4.93c0-3.12-1.31-5.23-3.9-6.31a19.53,19.53,0,0,0-6.85-.89Z"/></g></g></svg>