<svg xmlns="http://www.w3.org/2000/svg" viewBox="0 0 3812.04 862.2"><defs><style>.cls-1{fill:#fff;}</style></defs><g id="Layer_2" data-name="Layer 2"><g id="Layer_1-2" data-name="Layer 1"><g id="Layer_2-2" data-name="Layer 2"><g id="Layer_1-2-2" data-name="Layer 1-2"><path class="cls-1" d="M0,13c3.33.05,6.66.15,10,.15H388c42.85,0,85.08,4.73,125.94,18.5C551.45,44.33,585,63.44,612.35,92.53q42.28,45,49.68,106.25c3.82,31.41,2.58,62.49-6,93.09a176.4,176.4,0,0,1-52,84.36,233.63,233.63,0,0,1-47.49,33.83,33.94,33.94,0,0,0-2.95,2c10.57,4.57,20.74,8.57,30.57,13.27,35.58,17,67.69,38.5,91.31,71,17,23.42,26.61,49.76,31.46,78A260.24,260.24,0,0,1,708.86,647c-6.76,61.45-35.27,110.18-86.8,145-35.82,24.21-75.86,37.62-117.84,45.88-35.58,7-71.61,9.55-107.82,9.56q-195.49.07-391,0c-1.8,0-3.6-.34-5.4-.52ZM179.18,686.84c1.47.08,2.45.17,3.43.17,71.63,0,143.26.16,214.89-.12,25-.1,49.92-2.55,73.61-11.55,18.17-6.9,33.82-17.25,43.9-34.47,12.83-21.93,14.24-45.6,8.62-69.59-6.55-28-26.08-44.88-51.8-55.21-22.05-8.86-45.31-12.43-68.89-12.56-73.46-.41-146.93-.27-220.39-.31a22.65,22.65,0,0,0-3.37.5Zm-1.33-336.06c1.61.08,2.91.21,4.21.21,55.48,0,111,.18,166.44-.08,21.84-.11,43.57-1.89,64.76-7.84,17.93-5,34.4-12.74,47.24-26.59C475.78,300,480.73,280,480.17,258c-.82-31.81-15.41-54.74-43.69-69.07-21.28-10.78-44.24-14.57-67.69-14.74-62.64-.44-125.29-.27-187.93-.33a29.91,29.91,0,0,0-3,.28Z"/><path class="cls-1" d="M2428,0l32.28,2.94c75.11,6.79,144.49,29.84,206.48,73.42a500.71,500.71,0,0,1,62.88,52.76L2612.53,263c-10-8.15-19.61-16.24-29.46-24.1-32.17-25.68-67.18-46.23-106.74-58.39a259.13,259.13,0,0,0-98.19-10.62q-73.57,6-129.92,53.43c-45.71,38.53-73.13,88-85,146.17-13,63.75-6.74,125.83,20.88,184.88,26.49,56.64,68.15,98.57,126.56,122.47,27.86,11.41,57.09,16.71,87.28,16.65,36.5-.09,72-5.52,105.93-19.39a298.19,298.19,0,0,0,73.28-43.36c14.06-11.2,27.76-22.85,41.41-34.13l117.2,117.33c-5,5.15-10.24,10.82-15.72,16.3-31.57,31.63-65.86,59.76-105.24,81.26a394.74,394.74,0,0,1-116.7,41.44c-38.79,7.33-77.91,10-117.32,9.09a431.76,431.76,0,0,1-133.15-23.78q-133.35-46.54-211.82-164c-26.32-39.36-45-82.32-56.68-128.22-11.54-45.2-15.73-91.11-13.47-137.68A445.1,445.1,0,0,1,1988,288.42a418.26,418.26,0,0,1,60.17-116.77A411,411,0,0,1,2166,63.55,418.21,418.21,0,0,1,2319.21,7c17.56-2.79,35.36-4.14,53-6.18A33.29,33.29,0,0,0,2376,0Z"/><path class="cls-1" d="M3626.87,13.15,3287.55,367.49,3643,848.69c-2.37.14-3.92.3-5.47.3q-105.73,0-211.49.09a8,8,0,0,1-7.36-3.8q-112-153.63-224.16-307.14-14.73-20.17-29.49-40.34c-1-1.32-2-2.6-3.14-4.06-5,4.93-9.9,9.58-14.61,14.43q-39.33,40.55-78.48,81.27a12.31,12.31,0,0,0-2.89,7.84q-.22,122.25-.13,244.49v6.84H2882.42V13.6h183.3V378.89c5.17-5.47,9.24-9.73,13.25-14.06q89.43-96.37,178.82-192.76,71.55-77.16,143-154.4c2.91-3.15,5.79-4.63,10.24-4.62q104.74.22,209.49.1Z"/><path class="cls-1" d="M1044.8,682h416.64V848.68H861.38V13.59H1044.8Z"/><path class="cls-1" d="M1792.65,848.86H1609.44V13.56h183.21Z"/><path class="cls-1" d="M3812,93.07c0,38.55-30.59,69-69.33,69-38.2.05-69.6-31.44-69.56-69.75,0-37.33,31.69-69.74,68.69-69C3781.24,24,3812.54,57.17,3812,93.07Zm-122.55.09c.53,4.28.79,8.61,1.62,12.84,7,35.36,44.35,53.46,75.88,36.82,24.71-13,35.54-46.07,24-73.26C3782,48.28,3761.82,35,3741,36.67c-30.12,2.39-51.22,25.65-51.55,56.49Z"/><path class="cls-1" d="M3755.27,97.16c8,3,10.37,9.28,11.91,16.13,1.28,5.65,2.65,11.28,4.12,17.51-3.84,0-7.75.22-11.62-.13a5.09,5.09,0,0,1-3.46-2.73,62.22,62.22,0,0,1-2.77-9.56c-3.19-13.88-7.31-16.87-22.18-15.46v27.53h-14.66V60.74c5.31-.38,10.84-1.05,16.38-1.11,10.1-.1,20.05-.14,29.88,3.88,8.8,3.58,10.55,20.91,3.32,26.14C3762.86,92.05,3759.43,94.31,3755.27,97.16ZM3731,91.3c5.49-.38,10.43-.5,15.31-1.11,4.42-.54,7.26-3.1,7.72-7.78.49-5-1.32-9.36-6-10.92-4.27-1.42-9.07-1.5-13.65-1.55-1.1,0-3.1,2.39-3.19,3.79C3730.81,79.19,3731,84.69,3731,91.3Z"/></g></g></g></g></svg>