<svg xmlns="http://www.w3.org/2000/svg" viewBox="0 0 293.43 56.4"><defs><style>.cls-1{fill:#fff;}</style></defs><g id="Layer_2" data-name="Layer 2"><g id="Layer_1-2" data-name="Layer 1"><path class="cls-1" d="M0,55.05V0H7.35V55.05Zm4.57-19.8V28.72h14.7A11.7,11.7,0,0,0,25.2,27.3,9.79,9.79,0,0,0,29,23.36a11.9,11.9,0,0,0,1.36-5.74A11.92,11.92,0,0,0,29,11.89a10.08,10.08,0,0,0-3.82-4,11.51,11.51,0,0,0-5.93-1.46H4.57V0H17.92a28.16,28.16,0,0,1,10.5,1.8,14.61,14.61,0,0,1,7,5.55A17.26,17.26,0,0,1,37.88,17v1.2a17,17,0,0,1-2.52,9.68,14.82,14.82,0,0,1-7,5.55,27.92,27.92,0,0,1-10.47,1.8Zm29.26,19.8L15.67,30.67H24.3L42.75,55.05Z"/><path class="cls-1" d="M66.07,56.4a24.78,24.78,0,0,1-12.48-2.89,18.59,18.59,0,0,1-7.65-8.1A26.82,26.82,0,0,1,43.35,33.3V.3H50.7V34.2a17.68,17.68,0,0,0,1.76,8.06,12.72,12.72,0,0,0,5.21,5.44,16.83,16.83,0,0,0,8.4,1.95,17,17,0,0,0,8.37-1.91,12.59,12.59,0,0,0,5.17-5.4,17.78,17.78,0,0,0,1.76-8.14V.3h7.35v33a27.22,27.22,0,0,1-2.55,12.11,18.47,18.47,0,0,1-7.57,8.1A24.79,24.79,0,0,1,66.07,56.4Z"/><path class="cls-1" d="M94.57,55.05V.3h7.35V55.05Zm5.85-23.93v-6.6h32.7v6.6Zm31.2,23.93V.3H139V55.05Z"/><path class="cls-1" d="M144.37,55.35V0h7.35V55.35Zm5.85-26.18V24.38H163.5c3.1,0,5.38-.84,6.86-2.52a9.35,9.35,0,0,0,2.21-6.41A9.49,9.49,0,0,0,170.36,9c-1.48-1.67-3.76-2.51-6.86-2.51H150.22V0h12q9,0,13.43,3.79t4.42,10.91v1.05a12.91,12.91,0,0,1-2.25,8,12.14,12.14,0,0,1-6.26,4.2,32,32,0,0,1-9.34,1.23Zm0,26.18V48.9h15.3a9.16,9.16,0,0,0,6.87-2.51,9.26,9.26,0,0,0,2.43-6.72,9.15,9.15,0,0,0-2.4-6.71c-1.6-1.62-3.9-2.44-6.9-2.44h-15.3v-4.8h14.25A30.68,30.68,0,0,1,173.74,27,12.43,12.43,0,0,1,180,31.24q2.29,3,2.29,8.06v1.05a15.9,15.9,0,0,1-1.95,8.14,12.49,12.49,0,0,1-5.92,5.1,24.78,24.78,0,0,1-10,1.76Z"/><path class="cls-1" d="M186.37,55.05V.3h7.35V55.05ZM192.22,6.9V.3H218V6.9Zm0,23.62v-6.6h24.23v6.6Zm0,24.53v-6.6h26.55v6.6Z"/><path class="cls-1" d="M223.87,55.05V0h7.35V55.05Zm4.58-19.8V28.72h14.7a11.69,11.69,0,0,0,5.92-1.42,9.81,9.81,0,0,0,3.83-3.94,11.9,11.9,0,0,0,1.35-5.74,11.91,11.91,0,0,0-1.35-5.73,10.11,10.11,0,0,0-3.83-4,11.5,11.5,0,0,0-5.92-1.46h-14.7V0H241.8a28.16,28.16,0,0,1,10.5,1.8,14.58,14.58,0,0,1,7,5.55A17.26,17.26,0,0,1,261.75,17v1.2a17,17,0,0,1-2.52,9.68,14.82,14.82,0,0,1-7,5.55,27.87,27.87,0,0,1-10.46,1.8Zm29.25,19.8L239.55,30.67h8.62l18.45,24.38Z"/><path class="cls-1" d="M265.22,2V0h11.15V2Zm4.41,12.32V1.6H272V14.29Zm8.86,0V0h3l4.33,10h.3L290.44,0h3V14.29h-2.26V2l.48,0-4.27,9.66h-3l-4.26-9.66.47,0V14.29Z"/></g></g></svg>