<svg xmlns="http://www.w3.org/2000/svg" viewBox="0 0 2499.8 455.8"><defs><style>.cls-1{fill:#fff;}</style></defs><g id="Layer_2" data-name="Layer 2"><g id="Layer_1-2" data-name="Layer 1"><path class="cls-1" d="M933.65,146.57c-38.17-8.07-77.37-16.59-77.37-47.32,0-33.88,35.66-41,66.13-41a217.59,217.59,0,0,1,92,21l2.75,1.34a1.61,1.61,0,0,0,2.14-.68l27.49-48.63a1.62,1.62,0,0,0-.58-2.23l-.1-.05-2.93-1.47C1001.7,8.7,962.89,0,921.13,0,840.06,0,787.66,39.3,787.66,100.19c0,70.15,58.74,92,122.15,105.07,39.93,8.25,78.6,16.43,78.6,48.42,0,34.56-38.36,41.92-71.06,41.92-34.56,0-69.22-10.11-106-30.92l-1.15-.68a1.63,1.63,0,0,0-2.23.56l0,0-28.46,50.55a1.65,1.65,0,0,0,.58,2.2l1.18.71a279.69,279.69,0,0,0,136.25,36.31c88.76,0,139.67-36.86,139.67-101.16-.05-80.28-71.05-95.53-123.51-106.64Zm330,143.79a1.66,1.66,0,0,0-2.09-1l-.06,0-3.62,1.39c-14.23,5.5-24,7.86-44.54,7.86-23.82,0-39.3-12.86-39.3-32.75V144.66h85a1.63,1.63,0,0,0,1.65-1.6V94a1.63,1.63,0,0,0-1.63-1.62H1174.1V28.51a1.63,1.63,0,0,0-1.62-1.63h-62.2a1.63,1.63,0,0,0-1.63,1.63V92.36h-50.78a1.63,1.63,0,0,0-1.62,1.62v49.16a1.63,1.63,0,0,0,1.6,1.65h50.83v127.7c0,51.28,34.3,81.88,91.7,81.88,33.36,0,52.85-6.94,73.16-15.33l3.84-1.65a1.65,1.65,0,0,0,.9-2ZM559.63,7.21H80.15C34.72,7.21,0,44.12,0,89.64V346.07a1.75,1.75,0,0,0,1.75,1.75h62a1.75,1.75,0,0,0,1.75-1.75h0V85.81H574.3V346.07a1.76,1.76,0,0,0,1.76,1.75h62.07a1.75,1.75,0,0,0,1.75-1.75h0V89.64C639.88,44.12,605.25,7.21,559.63,7.21ZM1554.18,300h-9.86c-12.18,0-18.65-6.65-18.65-19.2V179.35c0-62.88-34.06-93.54-104.49-93.54a260.71,260.71,0,0,0-112.67,23.58,1.63,1.63,0,0,0-.89,2l15.54,47.48a1.67,1.67,0,0,0,2.09,1l.06,0c34.24-13.55,64.8-21,86.12-21,24.21,0,48.79,4.48,48.79,37.6v14.12s-3.85.29-81.59,6.55-89.09,60.71-89.09,82.77c0,43.81,34.8,74.44,84.63,74.44A141.94,141.94,0,0,0,1468.84,320c5.82,12.19,22.27,32.63,67.15,32.63h18.34A1.63,1.63,0,0,0,1556,351V301.63a1.62,1.62,0,0,0-1.61-1.64Zm-94-23.94c-28.82,20.41-49.31,28.82-70.35,28.82-21.9,0-36.68-11.32-36.68-28.17,0-7.15.84-29.63,31.94-33.61s75-9.54,75-9.54Zm936.28-83c-41.92-7.36-62.62-11.23-62.62-31,0-11.71,5.55-27.19,50.88-27.19a166,166,0,0,1,79.91,20.54l1.76.92a1.65,1.65,0,0,0,2.17-.63l24.32-42.24a1.62,1.62,0,0,0-.6-2.22l-.11-.06-2-1c-29.34-13.5-57.48-24.63-105.06-24.63-72.76,0-112.85,28.09-112.85,79.07,0,58,53.92,71.85,104.44,80.23,44.7,7.42,62.67,13.7,62.67,33.43,0,18-17.32,26.7-54.31,26.7-34.06,0-68.73-14.46-91.94-26.62l-1.47-.7a1.64,1.64,0,0,0-2.15.68L2265.33,321a1.65,1.65,0,0,0,.62,2.25h0l1.44.79c38,19.68,78.6,30.08,117.62,30.08,76.16,0,114.78-26.91,114.78-80,0-57.88-51.09-71.89-103.33-81.07ZM1728.1,85.81c-29.58,0-54.58,9.77-78.6,30.76V94a1.62,1.62,0,0,0-1.63-1.62h-62.25A1.62,1.62,0,0,0,1584,94V454.15a1.64,1.64,0,0,0,1.6,1.65h62.2a1.63,1.63,0,0,0,1.65-1.6V324.48c22.88,19,51.52,29.92,78.61,29.92,69.48,0,117.9-55.21,117.9-134.28,0-75.33-51.74-134.31-117.85-134.31Zm-16.37,212.88c-22.75,0-41.93-10.71-62.31-34.74V174c21-22.5,40.27-32.51,62.3-32.51,41.8,0,68.78,30.86,68.78,78.6,0,47-27.64,78.6-68.78,78.6Z"/><rect class="cls-1" x="1881.38" y="7.21" width="65.5" height="340.62" rx="1.65"/><path class="cls-1" d="M2214,278.7a1.66,1.66,0,0,0-2.2-.63l-2.12,1.16c-21.2,11.13-40.33,22.37-80.49,22.37-43.57,0-73.16-24.23-79.08-64.82h184.54a1.63,1.63,0,0,0,1.65-1.6V217.31c0-81.22-48.5-131.5-126.58-131.5-74.8,0-127.08,56-127.08,136.25,0,79.15,56.52,132.34,140.63,132.34a214,214,0,0,0,113.37-30.74l1.1-.7a1.64,1.64,0,0,0,.52-2.2ZM2110.32,138.87c34.06,0,55,17.71,60.63,51.25H2050.43c5.76-33.09,27-51.25,59.89-51.25Z"/></g></g></svg>