<svg xmlns="http://www.w3.org/2000/svg" viewBox="0 0 2499.06 594"><defs><style>.cls-1{fill:#fff;}</style></defs><g id="Layer_2" data-name="Layer 2"><g id="Layer_1-2" data-name="Layer 1"><path class="cls-1" d="M2195.18,200c13.92,0,25.37-7.23,26.92-16.58L2235.84,28c0-15.36-18-28-40.62-28s-40.58,12.61-40.58,28l13.73,155.41c1.52,9.35,13,16.58,26.85,16.58h0m-84,48.55c7-12,6.45-25.57-.91-31.58l-127.74-89.61c-13.28-7.69-33.19,1.57-44.49,21.17s-9.33,41.44,3.91,49.13l141.45,65.86c8.84,3.27,20.89-3,27.82-15.07l0,.1m168.06-.09c7,12,19,18.34,27.81,15.06l141.44-65.85c13.33-7.69,15.22-29.56,4-49.13s-31.31-28.86-44.55-21.17l-127.75,89.6c-7.3,6-7.84,19.55-.9,31.58l0-.09m-84.07,145.67c13.92,0,25.37,7.18,26.92,16.54L2235.84,566c0,15.41-18,28-40.62,28s-40.58-12.58-40.58-28l13.73-155.38c1.52-9.36,13-16.54,26.85-16.54h0m84.07-48.55c7-12.06,19-18.32,27.81-15l141.44,65.81c13.33,7.7,15.22,29.58,4,49.18s-31.31,28.82-44.55,21.14l-127.75-89.53c-7.3-6.05-7.84-19.6-.9-31.62h-.06m-168,0c7,12,6.45,25.57-.91,31.64l-127.74,89.51c-13.28,7.68-33.19-1.62-44.49-21.14s-9.33-41.47,3.91-49.17l141.45-65.81c8.84-3.32,20.89,2.94,27.82,15h0"/><path class="cls-1" d="M1389.45,376.86a49.61,49.61,0,0,1-1.73,14c-5.42,17.94-24,33.11-47.24,33.11-19.38,0-34.77-11-34.77-34.25,0-35.59,39.16-45.41,83.75-45.16v32.29Zm69.92-62c0-58.67-25.07-110.3-109.78-110.3-43.48,0-78,12.22-96.83,23.1l13.8,47.17C1283.77,264,1311.21,255,1337.18,255c43-.12,50,24.33,50,40v3.7c-93.66-.14-152.87,32.29-152.87,98.36,0,40.37,30.15,78.18,82.57,78.18,32.21,0,59.19-12.85,75.34-33.47h1.59s10.69,44.76,69.66,27.63c-3.07-18.61-4.09-38.48-4.09-62.37V314.85M0,124.65s61.21,250.8,71,291.5c11.4,47.51,32,65,91.17,53.19l38.21-155.48c9.69-38.64,16.18-66.19,22.42-105.46h1.09c4.38,39.68,10.6,66.94,18.58,105.59,0,0,15.54,70.59,23.52,107.65s30.21,60.42,88.22,47.7l91.07-344.7H371.75l-31.1,149c-8.36,43.36-15.94,77.29-21.79,117h-1c-5.32-39.31-12.09-71.85-20.58-114.11L264.88,124.64H188.29L153.66,272.69c-9.81,45-19,81.32-24.82,119.66h-1.06c-6-36.1-13.93-81.77-22.55-125.31,0,0-20.56-105.9-27.79-142.4H0M584.3,376.86a48.9,48.9,0,0,1-1.75,14c-5.41,17.94-24,33.11-47.24,33.11-19.38,0-34.75-11-34.75-34.25,0-35.59,39.15-45.41,83.74-45.16v32.29Zm69.91-62c0-58.67-25.07-110.3-109.76-110.3-43.5,0-78,12.22-96.86,23.1l13.78,47.17C478.58,264,506,255,532,255c43-.12,50,24.33,50,40v3.7c-93.7-.14-152.88,32.29-152.88,98.36,0,40.37,30.14,78.18,82.52,78.18,32.25,0,59.21-12.85,75.38-33.47h1.57s10.72,44.76,69.68,27.63c-3.08-18.61-4.09-38.48-4.09-62.37V314.85M770.9,396.17V124.65h-70v344.7h70V396.17m915.86-271.52V378.93c0,35.08,6.61,59.62,20.71,74.65,12.36,13.13,32.66,21.63,57,21.63,20.71,0,41.06-3.95,50.67-7.51l-.9-54.7a106.87,106.87,0,0,1-26.59,3.16c-23.86,0-31.83-15.28-31.83-46.75V272.12h61v-66h-61v-81.5h-69.06m-180.7,85.75v259h72.22V336.77a98.59,98.59,0,0,1,1.56-19.13c5.34-27.79,26.58-45.52,57.09-45.52a133.5,133.5,0,0,1,20.84,1.83v-67.8a70.67,70.67,0,0,0-15.91-1.59c-26.95,0-57.61,17.39-70.48,54.7h-2V210.4h-63.37m-686.13,0v259h70.36V317.5c0-7.12.83-14.66,3.3-21.19,5.83-15.29,20.06-33.19,42.77-33.19,28.4,0,41.67,24,41.67,58.64V469.34h70.31V315.64c0-6.8.92-15,2.93-21,5.78-17.41,21.1-31.55,42.22-31.55,28.78,0,42.59,23.58,42.59,64.35V469.33h70.36V316.8c0-80.42-40.84-112.26-87-112.26-20.4,0-36.52,5.11-51.1,14-12.24,7.54-23.22,18.23-32.8,32.27h-1c-11.12-27.9-37.28-46.3-71.37-46.3-43.8,0-63.48,22.2-75.42,41h-1V210.39H819.93"/><path class="cls-1" d="M2484,456.76H2485c1.41,0,2.31-.58,2.31-1.44s-.85-1.52-2.15-1.52c-.45,0-.91.09-1.22.09v2.87Zm-.16,7h-3.74V451.56a29,29,0,0,1,5.36-.46c2.75,0,4,.38,4.89,1a3.18,3.18,0,0,1,1.32,2.67c0,1.26-1.16,2.31-2.85,2.78v.15c1.38.37,2.14,1.38,2.53,3.14a12.16,12.16,0,0,0,.85,2.92h-4.24a8,8,0,0,1-.84-2.6c-.23-1.24-.82-1.85-2.07-1.85h-1.22v4.45Zm1.54-16.16c-5.37,0-9.42,4.37-9.42,10a9.59,9.59,0,0,0,9.57,9.87c5.53.09,9.59-4.43,9.59-10a9.56,9.56,0,0,0-9.65-9.86Zm.24-3.31a13.69,13.69,0,1,1-.1,0h.08"/></g></g></svg>